# xmcd
#
# Track frame offsets: 
#        150
#        28074
#        47902
#        70994
#        94121
#        113448
#        133488
#        163406
#        192778
#        222144
#        254322
#        273544
#
# Disc length: 4635 seconds
#
# Revision: 0
# Processed by: cddbd v1.5.2PL0 Copyright (c) Steve Scherf et al.
# Submitted via: ExactAudioCopy v0.99pb4
#
DISCID=b612190c
DTITLE=Bernie Marsden - going to my hometown
DYEAR=2009
DGENRE=Acoustic
TTITLE0=till the day i die
TTITLE1=the time is right for love
TTITLE2=bell bottom blues
TTITLE3=the hell square dance
TTITLE4=key to the highway
TTITLE5=out on the western plains
TTITLE6=lovehunter
TTITLE7=going to my hometown
TTITLE8=ain't no love in the heart of the city
TTITLE9=rock and roll shoes
TTITLE10=wheels within wheels
TTITLE11=here i go again
EXTD=
EXTT0=
EXTT1=
EXTT2=
EXTT3=
EXTT4=
EXTT5=
EXTT6=
EXTT7=
EXTT8=
EXTT9=
EXTT10=
EXTT11=
PLAYORDER=
